<svg id="visual" viewBox="0 0 960 540" width="960" height="540" xmlns="http://www.w3.org/2000/svg" xmlns:xlink="http://www.w3.org/1999/xlink" version="1.1"><rect x="0" y="0" width="960" height="540" fill="#000C16"></rect><defs><linearGradient id="grad1_0" x1="43.8%" y1="0%" x2="100%" y2="100%"><stop offset="14.444444444444446%" stop-color="#000c16" stop-opacity="1"></stop><stop offset="85.55555555555554%" stop-color="#000c16" stop-opacity="1"></stop></linearGradient></defs><defs><linearGradient id="grad2_0" x1="0%" y1="0%" x2="56.3%" y2="100%"><stop offset="14.444444444444446%" stop-color="#000c16" stop-opacity="1"></stop><stop offset="85.55555555555554%" stop-color="#000c16" stop-opacity="1"></stop></linearGradient></defs><g transform="translate(960, 0)"><path d="M0 513C-44.4 481.9 -88.9 450.8 -143.1 440.3C-197.3 429.9 -261.2 440.1 -301.5 415C-341.9 389.9 -358.6 329.4 -389.1 282.7C-419.7 236 -464 203 -486.9 158.2C-509.9 113.4 -511.4 56.7 -513 0L0 0Z" fill="#F2811F"></path></g><g transform="translate(0, 540)"><path d="M0 -513C50 -497.9 100 -482.8 150.8 -464.1C201.6 -445.4 253.3 -423.1 277.4 -381.9C301.6 -340.6 298.3 -280.3 335.7 -243.9C373.2 -207.6 451.5 -195.2 487.9 -158.5C524.2 -121.9 518.6 -60.9 513 0L0 0Z" fill="#F2811F"></path></g></svg>